<?xml version="1.0" standalone="no"?>
<!DOCTYPE svg PUBLIC "-//W3C//DTD SVG 20010904//EN"
 "http://www.w3.org/TR/2001/REC-SVG-20010904/DTD/svg10.dtd">
<svg version="1.0" xmlns="http://www.w3.org/2000/svg"
 width="300.000000pt" height="59.000000pt" viewBox="0 0 300.000000 59.000000"
 preserveAspectRatio="xMidYMid meet">
<metadata>
Created by potrace 1.16, written by Peter Selinger 2001-2019
</metadata>
<g transform="translate(0.000000,59.000000) scale(0.100000,-0.100000)"
fill="#000000" stroke="none">
<path d="M66 479 c-25 -30 -26 -34 -26 -179 0 -145 1 -149 26 -179 l26 -31
978 0 c857 0 979 2 990 15 9 11 35 15 101 15 l89 0 1 38 c1 20 5 51 9 67 6 23
8 15 9 -37 l1 -68 85 0 c47 0 85 4 85 9 0 5 8 12 18 14 16 4 16 5 0 6 -11 1
-18 9 -18 21 0 18 -7 20 -55 20 l-55 0 0 70 c0 40 4 70 10 70 6 0 10 33 10 80
l0 80 -40 0 -40 0 0 -110 0 -109 -26 26 c-18 18 -22 29 -15 36 18 18 13 102
-8 128 -15 19 -30 24 -87 27 -38 2 -73 8 -78 13 -6 5 -426 9 -987 9 l-977 0
-26 -31z m1942 4 c23 -6 23 -9 21 -104 -2 -54 0 -102 4 -105 4 -4 7 -38 7 -76
0 -64 -2 -69 -26 -78 -16 -6 -372 -10 -945 -10 -1014 0 -976 -2 -998 60 -14
43 -14 217 0 260 22 62 -17 59 994 59 506 1 930 -2 943 -6z"/>
<path d="M120 295 l0 -105 30 0 c29 0 30 2 30 45 l0 46 62 -51 c35 -27 66 -50
70 -50 5 0 8 50 8 110 l0 110 -35 0 c-35 0 -35 0 -35 -46 l0 -46 -54 46 c-30
25 -59 46 -65 46 -7 0 -11 -36 -11 -105z"/>
<path d="M371 374 c-57 -47 -50 -137 13 -175 76 -46 166 1 166 86 0 24 -3 25
-55 25 -54 0 -55 0 -55 -29 0 -20 6 -31 18 -34 13 -4 12 -5 -5 -6 -43 -2 -71
57 -41 87 15 15 50 16 65 1 14 -14 53 5 53 26 0 47 -110 61 -159 19z"/>
<path d="M560 321 c0 -95 4 -107 41 -126 53 -28 118 -13 138 32 6 13 11 57 11
98 l0 75 -35 0 -34 0 -3 -77 c-3 -70 -5 -78 -23 -78 -18 0 -20 8 -23 78 l-3
77 -34 0 -35 0 0 -79z"/>
<path d="M760 391 c0 -6 16 -36 35 -68 23 -39 35 -70 35 -95 0 -37 1 -38 35
-38 33 0 35 2 35 34 0 22 14 59 40 103 l40 68 0 -102 0 -103 80 0 c79 0 80 0
80 25 0 23 -4 25 -47 27 -44 1 -45 2 -10 5 33 4 37 7 37 34 0 27 -3 29 -35 29
-24 0 -35 5 -35 15 0 11 12 15 45 15 43 0 45 1 45 30 l0 30 -115 0 -116 0 -21
-36 -21 -36 -20 36 c-17 30 -27 36 -54 36 -18 0 -33 -4 -33 -9z"/>
<path d="M1150 295 l0 -105 30 0 c29 0 30 2 30 45 l0 46 62 -51 c35 -27 66
-50 70 -50 5 0 8 50 8 110 l0 110 -35 0 c-35 0 -35 0 -35 -46 l0 -46 -54 46
c-30 25 -59 46 -65 46 -7 0 -11 -36 -11 -105z"/>
<path d="M1370 295 l0 -105 75 0 c73 0 75 1 75 25 0 23 -4 25 -40 25 l-40 0 0
80 0 80 -35 0 -35 0 0 -105z"/>
<path d="M1577 301 c-26 -54 -47 -100 -47 -102 0 -2 63 -5 140 -6 l140 -2 0
36 c0 34 1 35 18 20 10 -10 22 -17 27 -17 5 0 17 7 27 17 17 15 18 14 18 -20
0 -36 1 -37 35 -37 l35 0 0 105 c0 66 -4 105 -10 105 -6 0 -32 -20 -58 -44
l-47 -44 -50 44 c-27 24 -53 44 -57 44 -5 0 -8 -46 -9 -102 l0 -103 -49 103
c-27 56 -53 102 -58 102 -5 0 -30 -44 -55 -99z"/>
<path d="M2535 477 c-42 -20 -55 -55 -55 -152 0 -78 -2 -85 -20 -85 -11 0 -20
-7 -20 -15 0 -9 9 -15 25 -15 16 0 25 -6 25 -15 0 -8 6 -15 14 -15 9 0 16 -12
18 -27 3 -26 6 -28 58 -31 87 -5 120 4 120 33 0 14 5 25 10 25 6 0 10 28 10
65 0 52 3 65 15 65 13 0 15 -9 9 -50 -6 -45 -5 -50 12 -50 16 0 17 -2 4 -11
-11 -8 -12 -12 -2 -16 6 -2 12 -15 12 -28 0 -19 7 -24 41 -29 22 -4 69 -3 105
0 l64 7 0 53 c0 32 -5 54 -12 57 -8 3 -6 6 5 6 10 1 17 9 17 20 0 11 3 26 6
35 5 14 -4 16 -60 16 l-66 0 0 -30 c0 -23 4 -30 20 -30 16 0 20 -7 20 -35 0
-32 -2 -35 -30 -35 -25 0 -30 4 -30 25 0 14 -5 25 -11 25 -18 0 -7 146 13 166
21 22 56 10 64 -22 6 -22 10 -24 38 -18 40 8 39 7 32 47 -10 55 -38 72 -113
72 -58 0 -67 -3 -89 -28 -14 -17 -26 -46 -30 -77 -9 -67 -30 -66 -36 1 -7 69
-38 100 -105 106 -27 2 -61 -3 -78 -10z m85 -67 c11 -7 16 -34 18 -105 3 -82
2 -95 -12 -95 -9 0 -16 -4 -16 -10 0 -5 -11 -10 -25 -10 -25 0 -25 0 -25 96 0
121 15 153 60 124z"/>
</g>
</svg>
